REM DIRINDEX 1\2,1\3,1\4
REM DIRNAME folder01,folder02,folder03,folder04
TITLE ""
FILE "Track32.mp3" MP3
  TRACK 01 AUDIO
    TITLE "0:"
    INDEX 01 00:00:00
  TRACK 02 AUDIO
    TITLE "4:cjc153_1966"
    INDEX 01 00:00:07
  TRACK 03 AUDIO
    TITLE "0:"
    INDEX 01 00:02:02
  TRACK 04 AUDIO
    TITLE "2:cjc153_1967"
    INDEX 01 00:02:61
  TRACK 05 AUDIO
    TITLE "0:"
    INDEX 01 00:03:68
  TRACK 06 AUDIO
    TITLE "3:cjc153_1968"
    INDEX 01 00:04:27
  TRACK 07 AUDIO
    TITLE "0:"
    INDEX 01 00:05:36
  TRACK 08 AUDIO
    TITLE "2:cjc153_1969"
    INDEX 01 00:06:06
  TRACK 09 AUDIO
    TITLE "0:"
    INDEX 01 00:07:21
  TRACK 10 AUDIO
    TITLE "3:cjc153_1970"
    INDEX 01 00:07:54
  TRACK 11 AUDIO
    TITLE "0:"
    INDEX 01 00:09:02
  TRACK 12 AUDIO
    TITLE "2:cjc153_1971"
    INDEX 01 00:09:45
  TRACK 13 AUDIO
    TITLE "0:"
    INDEX 01 00:10:63
  TRACK 14 AUDIO
    TITLE "3:cjc153_1972"
    INDEX 01 00:11:19
  TRACK 15 AUDIO
    TITLE "0:"
    INDEX 01 00:12:36
  TRACK 16 AUDIO
    TITLE "2:cjc153_1973"
    INDEX 01 00:13:06
  TRACK 17 AUDIO
    TITLE "0:"
    INDEX 01 00:14:23
  TRACK 18 AUDIO
    TITLE "3:cjc153_1974"
    INDEX 01 00:14:56
  TRACK 19 AUDIO
    TITLE "0:"
    INDEX 01 00:16:02
  TRACK 20 AUDIO
    TITLE "2:cjc153_1975"
    INDEX 01 00:16:42
  TRACK 21 AUDIO
    TITLE "0:"
    INDEX 01 00:17:63
  TRACK 22 AUDIO
    TITLE "3:cjc153_1976"
    INDEX 01 00:18:19
  TRACK 23 AUDIO
    TITLE "0:"
    INDEX 01 00:19:42
  TRACK 24 AUDIO
    TITLE "2:cjc153_1977"
    INDEX 01 00:20:08
  TRACK 25 AUDIO
    TITLE "0:"
    INDEX 01 00:21:27
  TRACK 26 AUDIO
    TITLE "3:cjc153_1978"
    INDEX 01 00:21:58
  TRACK 27 AUDIO
    TITLE "0:"
    INDEX 01 00:22:72
  TRACK 28 AUDIO
    TITLE "2:cjc153_1979"
    INDEX 01 00:23:42
  TRACK 29 AUDIO
    TITLE "0:"
    INDEX 01 00:24:59
  TRACK 30 AUDIO
    TITLE "3:cjc153_1980"
    INDEX 01 00:25:19
  TRACK 31 AUDIO
    TITLE "0:"
    INDEX 01 00:26:44
  TRACK 32 AUDIO
    TITLE "2:cjc153_1981"
    INDEX 01 00:27:14
  TRACK 33 AUDIO
    TITLE "0:"
    INDEX 01 00:28:41
  TRACK 34 AUDIO
    TITLE "3:cjc153_1982"
    INDEX 01 00:29:01
  TRACK 35 AUDIO
    TITLE "0:"
    INDEX 01 00:30:36
  TRACK 36 AUDIO
    TITLE "2:cjc153_1983"
    INDEX 01 00:31:06
  TRACK 37 AUDIO
    TITLE "0:"
    INDEX 01 00:32:27
  TRACK 38 AUDIO
    TITLE "3:cjc153_1984"
    INDEX 01 00:32:58
  TRACK 39 AUDIO
    TITLE "0:"
    INDEX 01 00:34:06
  TRACK 40 AUDIO
    TITLE "2:cjc153_1985"
    INDEX 01 00:34:51
  TRACK 41 AUDIO
    TITLE "0:"
    INDEX 01 00:35:68
  TRACK 42 AUDIO
    TITLE "3:cjc153_1986"
    INDEX 01 00:36:27
  TRACK 43 AUDIO
    TITLE "0:"
    INDEX 01 00:37:48
  TRACK 44 AUDIO
    TITLE "2:cjc153_1987"
    INDEX 01 00:38:16
  TRACK 45 AUDIO
    TITLE "0:"
    INDEX 01 00:39:29
  TRACK 46 AUDIO
    TITLE "3:cjc153_1988"
    INDEX 01 00:39:58
  TRACK 47 AUDIO
    TITLE "0:"
    INDEX 01 00:41:02
  TRACK 48 AUDIO
    TITLE "2:cjc153_1989"
    INDEX 01 00:41:45
  TRACK 49 AUDIO
    TITLE "0:"
    INDEX 01 00:42:59
  TRACK 50 AUDIO
    TITLE "3:cjc153_1990"
    INDEX 01 00:43:13
  TRACK 51 AUDIO
    TITLE "0:"
    INDEX 01 00:44:32
  TRACK 52 AUDIO
    TITLE "2:cjc153_1991"
    INDEX 01 00:45:04
  TRACK 53 AUDIO
    TITLE "0:"
    INDEX 01 00:46:17
  TRACK 54 AUDIO
    TITLE "3:cjc153_1992"
    INDEX 01 00:46:49
  TRACK 55 AUDIO
    TITLE "0:"
    INDEX 01 00:47:72
  TRACK 56 AUDIO
    TITLE "2:cjc153_1993"
    INDEX 01 00:48:44
  TRACK 57 AUDIO
    TITLE "0:"
    INDEX 01 00:49:51
  TRACK 58 AUDIO
    TITLE "3:cjc153_1994"
    INDEX 01 00:50:09
  TRACK 59 AUDIO
    TITLE "0:"
    INDEX 01 00:51:20
  TRACK 60 AUDIO
    TITLE "2:cjc153_1995"
    INDEX 01 00:51:65
  TRACK 61 AUDIO
    TITLE "0:"
    INDEX 01 00:52:71
  TRACK 62 AUDIO
    TITLE "3:cjc153_1996"
    INDEX 01 00:53:29
  TRACK 63 AUDIO
    TITLE "0:"
    INDEX 01 00:54:44
  TRACK 64 AUDIO
    TITLE "2:cjc153_1997"
    INDEX 01 00:55:14
  TRACK 65 AUDIO
    TITLE "0:"
    INDEX 01 00:56:20
  TRACK 66 AUDIO
    TITLE "3:cjc153_1998"
    INDEX 01 00:56:51
  TRACK 67 AUDIO
    TITLE "0:"
    INDEX 01 00:57:66
  TRACK 68 AUDIO
    TITLE "2:cjc153_1999"
    INDEX 01 00:58:36
  TRACK 69 AUDIO
    TITLE "0:"
    INDEX 01 00:59:36
  TRACK 70 AUDIO
    TITLE "3:cjc153_2000"
    INDEX 01 00:59:69
  TRACK 71 AUDIO
    TITLE "0:"
    INDEX 01 01:00:74
  TRACK 72 AUDIO
    TITLE "2:cjc153_2001"
    INDEX 01 01:01:48
  TRACK 73 AUDIO
    TITLE "0:"
    INDEX 01 01:02:63
  TRACK 74 AUDIO
    TITLE "3:cjc153_2002"
    INDEX 01 01:03:18
  TRACK 75 AUDIO
    TITLE "0:"
    INDEX 01 01:04:35
  TRACK 76 AUDIO
    TITLE "2:cjc153_2003"
    INDEX 01 01:05:07
  TRACK 77 AUDIO
    TITLE "0:"
    INDEX 01 01:06:20
  TRACK 78 AUDIO
    TITLE "3:cjc153_2004"
    INDEX 01 01:06:53
  TRACK 79 AUDIO
    TITLE "0:"
    INDEX 01 01:07:74
  TRACK 80 AUDIO
    TITLE "2:cjc153_2005"
    INDEX 01 01:08:44
  TRACK 81 AUDIO
    TITLE "0:"
    INDEX 01 01:09:50
  TRACK 82 AUDIO
    TITLE "3:cjc153_2006"
    INDEX 01 01:10:06
  TRACK 83 AUDIO
    TITLE "0:"
    INDEX 01 01:11:17
  TRACK 84 AUDIO
    TITLE "2:cjc153_2007"
    INDEX 01 01:11:64
  TRACK 85 AUDIO
    TITLE "0:"
    INDEX 01 01:12:60
  TRACK 86 AUDIO
    TITLE "3:cjc153_2008"
    INDEX 01 01:13:16
  TRACK 87 AUDIO
    TITLE "0:"
    INDEX 01 01:14:17
  TRACK 88 AUDIO
    TITLE "2:cjc153_2009"
    INDEX 01 01:14:57
  TRACK 89 AUDIO
    TITLE "0:"
    INDEX 01 01:15:62
  TRACK 90 AUDIO
    TITLE "3:cjc153_2010"
    INDEX 01 01:16:14
  TRACK 91 AUDIO
    TITLE "0:"
    INDEX 01 01:17:20
  TRACK 92 AUDIO
    TITLE "2:cjc153_2011"
    INDEX 01 01:17:67
  TRACK 93 AUDIO
    TITLE "0:"
    INDEX 01 01:19:05
  TRACK 94 AUDIO
    TITLE "3:cjc153_2012"
    INDEX 01 01:19:36
  TRACK 95 AUDIO
    TITLE "0:"
    INDEX 01 01:20:57
  TRACK 96 AUDIO
    TITLE "2:cjc153_2013"
    INDEX 01 01:21:25
  TRACK 97 AUDIO
    TITLE "0:"
    INDEX 01 01:22:27
  TRACK 98 AUDIO
    TITLE "3:cjc153_2014"
    INDEX 01 01:22:58
  TRACK 99 AUDIO
    TITLE "0:"
    INDEX 01 01:23:65
  TRACK 100 AUDIO
    TITLE "2:cjc153_2015"
    INDEX 01 01:24:36
  TRACK 101 AUDIO
    TITLE "0:"
    INDEX 01 01:25:29
  TRACK 102 AUDIO
    TITLE "3:cjc153_2016"
    INDEX 01 01:25:64
  TRACK 103 AUDIO
    TITLE "0:"
    INDEX 01 01:26:66
  TRACK 104 AUDIO
    TITLE "2:cjc153_2017"
    INDEX 01 01:27:34
  TRACK 105 AUDIO
    TITLE "0:"
    INDEX 01 01:28:35
  TRACK 106 AUDIO
    TITLE "3:cjc153_2018"
    INDEX 01 01:28:69
  TRACK 107 AUDIO
    TITLE "0:"
    INDEX 01 01:30:05
  TRACK 108 AUDIO
    TITLE "2:cjc153_2019"
    INDEX 01 01:30:48
  TRACK 109 AUDIO
    TITLE "0:"
    INDEX 01 01:31:65
  TRACK 110 AUDIO
    TITLE "3:cjc153_2020"
    INDEX 01 01:32:21
  TRACK 111 AUDIO
    TITLE "0:"
    INDEX 01 01:33:33
  TRACK 112 AUDIO
    TITLE "2:cjc153_2021"
    INDEX 01 01:34:08
  TRACK 113 AUDIO
    TITLE "0:"
    INDEX 01 01:35:20
  TRACK 114 AUDIO
    TITLE "3:cjc153_2022"
    INDEX 01 01:35:59
  TRACK 115 AUDIO
    TITLE "0:"
    INDEX 01 01:36:74
  TRACK 116 AUDIO
    TITLE "2:cjc153_2023"
    INDEX 01 01:37:44
  TRACK 117 AUDIO
    TITLE "0:"
    INDEX 01 01:38:59
  TRACK 118 AUDIO
    TITLE "3:cjc153_2024"
    INDEX 01 01:39:19
  TRACK 119 AUDIO
    TITLE "0:"
    INDEX 01 01:40:38
  TRACK 120 AUDIO
    TITLE "2:cjc153_2025"
    INDEX 01 01:41:09
  TRACK 121 AUDIO
    TITLE "0:"
    INDEX 01 01:42:41
  TRACK 122 AUDIO
    TITLE "3:cjc153_2026"
    INDEX 01 01:42:63
  TRACK 123 AUDIO
    TITLE "0:"
    INDEX 01 01:44:24
